<svg width="100" height="23" viewBox="0 0 100 23" fill="none" xmlns="http://www.w3.org/2000/svg">
<rect x="61" width="39" height="23" rx="3" fill="#4A90E2"/>
<path d="M1.19 6.298C1.54467 6.214 1.92733 6.158 2.338 6.13C2.74867 6.102 3.15467 6.088 3.556 6.088C3.98533 6.088 4.41933 6.13 4.858 6.214C5.306 6.298 5.712 6.452 6.076 6.676C6.44 6.9 6.734 7.208 6.958 7.6C7.19133 7.992 7.308 8.49133 7.308 9.098C7.308 9.69533 7.20067 10.1993 6.986 10.61C6.77133 11.0207 6.48667 11.3567 6.132 11.618C5.77733 11.87 5.37133 12.052 4.914 12.164C4.45667 12.276 3.98533 12.332 3.5 12.332C3.45333 12.332 3.374 12.332 3.262 12.332C3.15933 12.332 3.04733 12.332 2.926 12.332C2.814 12.3227 2.702 12.3133 2.59 12.304C2.478 12.2947 2.39867 12.2853 2.352 12.276V16H1.19V6.298ZM3.584 7.096C3.34133 7.096 3.108 7.10067 2.884 7.11C2.66 7.11933 2.48267 7.14267 2.352 7.18V11.24C2.39867 11.2587 2.47333 11.2727 2.576 11.282C2.67867 11.282 2.786 11.2867 2.898 11.296C3.01 11.296 3.11733 11.296 3.22 11.296C3.32267 11.296 3.39733 11.296 3.444 11.296C3.76133 11.296 4.074 11.268 4.382 11.212C4.69933 11.1467 4.984 11.0347 5.236 10.876C5.488 10.7173 5.68867 10.4933 5.838 10.204C5.99667 9.91467 6.076 9.546 6.076 9.098C6.076 8.71533 6.00133 8.398 5.852 8.146C5.712 7.88467 5.52067 7.67933 5.278 7.53C5.04467 7.37133 4.77867 7.25933 4.48 7.194C4.18133 7.12867 3.88267 7.096 3.584 7.096ZM11.7101 10.078C11.4301 9.98467 11.1641 9.938 10.9121 9.938C10.5108 9.938 10.1935 10.05 9.96013 10.274C9.72679 10.4887 9.58213 10.764 9.52613 11.1V16H8.40613V9H9.19013L9.40013 9.854H9.45613C9.63346 9.53667 9.84346 9.294 10.0861 9.126C10.3381 8.94867 10.6555 8.86 11.0381 8.86C11.3088 8.86 11.6121 8.90667 11.9481 9L11.7101 10.078ZM18.2739 15.44C17.9939 15.664 17.6393 15.8413 17.2099 15.972C16.7899 16.1027 16.3419 16.168 15.8659 16.168C15.3339 16.168 14.8719 16.084 14.4799 15.916C14.0879 15.7387 13.7659 15.4913 13.5139 15.174C13.2619 14.8473 13.0753 14.46 12.9539 14.012C12.8326 13.564 12.7719 13.06 12.7719 12.5C12.7719 11.3053 13.0379 10.3953 13.5699 9.77C14.1019 9.14467 14.8626 8.832 15.8519 8.832C16.1693 8.832 16.4866 8.86933 16.8039 8.944C17.1213 9.00933 17.4059 9.14 17.6579 9.336C17.9099 9.532 18.1153 9.812 18.2739 10.176C18.4326 10.5307 18.5119 11.002 18.5119 11.59C18.5119 11.898 18.4839 12.2387 18.4279 12.612H13.9339C13.9339 13.0227 13.9759 13.3867 14.0599 13.704C14.1439 14.0213 14.2746 14.292 14.4519 14.516C14.6293 14.7307 14.8579 14.8987 15.1379 15.02C15.4273 15.132 15.7773 15.188 16.1879 15.188C16.5053 15.188 16.8226 15.132 17.1399 15.02C17.4573 14.908 17.6953 14.7773 17.8539 14.628L18.2739 15.44ZM15.8659 9.812C15.3153 9.812 14.8719 9.95667 14.5359 10.246C14.2093 10.5353 14.0133 11.03 13.9479 11.73H17.4199C17.4199 11.0207 17.2846 10.526 17.0139 10.246C16.7433 9.95667 16.3606 9.812 15.8659 9.812ZM24.3753 16V12.038C24.3753 11.6647 24.3566 11.3427 24.3193 11.072C24.2913 10.792 24.2306 10.5587 24.1373 10.372C24.044 10.1853 23.9086 10.0453 23.7313 9.952C23.5633 9.85867 23.3393 9.812 23.0593 9.812C22.63 9.812 22.2706 9.94267 21.9813 10.204C21.7013 10.4653 21.5053 10.792 21.3933 11.184V16H20.2733V9H21.0573L21.2673 9.854H21.3233C21.5753 9.55533 21.8646 9.31267 22.1913 9.126C22.5273 8.93 22.9613 8.832 23.4933 8.832C23.9413 8.832 24.3053 8.92067 24.5853 9.098C24.8746 9.266 25.0986 9.56467 25.2573 9.994C25.472 9.63 25.766 9.34533 26.1393 9.14C26.522 8.93467 26.9513 8.832 27.4273 8.832C27.8193 8.832 28.1506 8.87867 28.4213 8.972C28.692 9.056 28.916 9.21 29.0933 9.434C29.2706 9.658 29.3966 9.96133 29.4713 10.344C29.5553 10.7267 29.5973 11.212 29.5973 11.8V16H28.4773V11.786C28.4773 11.45 28.4586 11.1607 28.4213 10.918C28.3933 10.666 28.328 10.4607 28.2253 10.302C28.132 10.134 27.9966 10.0127 27.8193 9.938C27.6513 9.854 27.4273 9.812 27.1473 9.812C26.6806 9.812 26.3166 9.94267 26.0553 10.204C25.794 10.4653 25.6073 10.8387 25.4953 11.324V16H24.3753ZM31.8726 9H32.9926V16H31.8726V9ZM31.6346 6.872C31.6346 6.65733 31.7046 6.47533 31.8446 6.326C31.994 6.16733 32.1806 6.088 32.4046 6.088C32.6286 6.088 32.82 6.16733 32.9786 6.326C33.1373 6.47533 33.2166 6.65733 33.2166 6.872C33.2166 7.08667 33.1373 7.264 32.9786 7.404C32.82 7.544 32.6286 7.614 32.4046 7.614C32.1806 7.614 31.994 7.544 31.8446 7.404C31.7046 7.264 31.6346 7.08667 31.6346 6.872ZM36.3887 9V12.99C36.3887 13.354 36.4074 13.676 36.4447 13.956C36.4914 14.2267 36.5661 14.4553 36.6687 14.642C36.7714 14.8193 36.9114 14.9547 37.0887 15.048C37.2661 15.1413 37.4901 15.188 37.7607 15.188C38.0127 15.188 38.2367 15.1507 38.4327 15.076C38.6287 14.992 38.8014 14.88 38.9507 14.74C39.1094 14.6 39.2447 14.4413 39.3567 14.264C39.4781 14.0773 39.5761 13.8813 39.6507 13.676V9H40.7707V14.012C40.7707 14.348 40.7801 14.698 40.7987 15.062C40.8267 15.4167 40.8687 15.7293 40.9247 16H40.1547L39.8747 14.894H39.8047C39.5901 15.258 39.3007 15.5613 38.9367 15.804C38.5727 16.0467 38.1107 16.168 37.5507 16.168C37.1774 16.168 36.8461 16.1213 36.5567 16.028C36.2767 15.944 36.0387 15.79 35.8427 15.566C35.6561 15.342 35.5114 15.0433 35.4087 14.67C35.3154 14.2873 35.2687 13.8067 35.2687 13.228V9H36.3887ZM47.0296 16V12.038C47.0296 11.6647 47.0109 11.3427 46.9736 11.072C46.9456 10.792 46.8849 10.5587 46.7916 10.372C46.6983 10.1853 46.5629 10.0453 46.3856 9.952C46.2176 9.85867 45.9936 9.812 45.7136 9.812C45.2843 9.812 44.9249 9.94267 44.6356 10.204C44.3556 10.4653 44.1596 10.792 44.0476 11.184V16H42.9276V9H43.7116L43.9216 9.854H43.9776C44.2296 9.55533 44.5189 9.31267 44.8456 9.126C45.1816 8.93 45.6156 8.832 46.1476 8.832C46.5956 8.832 46.9596 8.92067 47.2396 9.098C47.5289 9.266 47.7529 9.56467 47.9116 9.994C48.1263 9.63 48.4203 9.34533 48.7936 9.14C49.1763 8.93467 49.6056 8.832 50.0816 8.832C50.4736 8.832 50.8049 8.87867 51.0756 8.972C51.3463 9.056 51.5703 9.21 51.7476 9.434C51.9249 9.658 52.0509 9.96133 52.1256 10.344C52.2096 10.7267 52.2516 11.212 52.2516 11.8V16H51.1316V11.786C51.1316 11.45 51.1129 11.1607 51.0756 10.918C51.0476 10.666 50.9823 10.4607 50.8796 10.302C50.7863 10.134 50.6509 10.0127 50.4736 9.938C50.3056 9.854 50.0816 9.812 49.8016 9.812C49.3349 9.812 48.9709 9.94267 48.7096 10.204C48.4483 10.4653 48.2616 10.8387 48.1496 11.324V16H47.0296Z" fill="white"/>
<path d="M75.462 15.594C75.182 15.8087 74.8273 15.958 74.398 16.042C73.9687 16.126 73.5113 16.168 73.026 16.168C72.438 16.168 71.8873 16.07 71.374 15.874C70.8607 15.6687 70.4127 15.3607 70.03 14.95C69.6473 14.5393 69.344 14.0167 69.12 13.382C68.896 12.738 68.784 11.9773 68.784 11.1C68.784 10.1853 68.9053 9.41067 69.148 8.776C69.4 8.132 69.7267 7.60933 70.128 7.208C70.5387 6.79733 70.996 6.49867 71.5 6.312C72.004 6.12533 72.5173 6.032 73.04 6.032C73.6 6.032 74.0573 6.06467 74.412 6.13C74.7667 6.186 75.07 6.26533 75.322 6.368L75.042 7.39C74.594 7.17533 73.9547 7.068 73.124 7.068C72.7413 7.068 72.3633 7.138 71.99 7.278C71.6167 7.418 71.2807 7.64667 70.982 7.964C70.6927 8.28133 70.4593 8.69667 70.282 9.21C70.1047 9.72333 70.016 10.3533 70.016 11.1C70.016 11.772 70.1 12.36 70.268 12.864C70.436 13.368 70.6647 13.788 70.954 14.124C71.2527 14.46 71.598 14.712 71.99 14.88C72.3913 15.048 72.8253 15.132 73.292 15.132C73.712 15.132 74.076 15.09 74.384 15.006C74.7013 14.922 74.9673 14.8147 75.182 14.684L75.462 15.594ZM81.4536 13.284H77.8416L76.8616 16H75.7136L79.4236 6.046H79.9556L83.6796 16H82.4616L81.4536 13.284ZM78.2196 12.276H81.1036L80.0116 9.294L79.6616 7.81H79.6476L79.2976 9.322L78.2196 12.276ZM84.981 6.298C85.3357 6.23267 85.7417 6.18133 86.199 6.144C86.6657 6.10667 87.0903 6.088 87.473 6.088C87.9023 6.088 88.3083 6.13467 88.691 6.228C89.083 6.32133 89.4237 6.47533 89.713 6.69C90.0117 6.90467 90.2497 7.18467 90.427 7.53C90.6043 7.87533 90.693 8.29533 90.693 8.79C90.693 9.55533 90.483 10.176 90.063 10.652C89.643 11.128 89.111 11.4453 88.467 11.604L89.139 12.122L91.575 16H90.217L87.515 11.772L86.143 11.562V16H84.981V6.298ZM87.501 7.096C87.3797 7.096 87.2537 7.096 87.123 7.096C86.9923 7.096 86.8663 7.10067 86.745 7.11C86.6237 7.11933 86.507 7.12867 86.395 7.138C86.2923 7.14733 86.2083 7.16133 86.143 7.18V10.792H87.235C87.879 10.792 88.411 10.6333 88.831 10.316C89.251 9.99867 89.461 9.504 89.461 8.832C89.461 8.328 89.2883 7.91267 88.943 7.586C88.5977 7.25933 88.117 7.096 87.501 7.096Z" fill="white"/>
</svg>
